<svg t="1641865251474" class="icon" viewBox="0 0 1024 1024" version="1.1" xmlns="http://www.w3.org/2000/svg" p-id="1154" width="48" height="48"><path d="M512 464.455014m-448.014129 0a448.014129 448.014129 0 1 0 896.028258 0 448.014129 448.014129 0 1 0-896.028258 0Z" fill="#FFE585" p-id="1155"></path><path d="M412.803918 1024h197.290625a16.440885 16.440885 0 0 0 0-32.881771h-197.290625a16.440885 16.440885 0 0 0 0 32.881771z" fill="#6E6E96" opacity=".29" p-id="1156"></path><path d="M683.527758 1024h57.543099a16.440885 16.440885 0 0 0 0-32.881771h-57.543099a16.440885 16.440885 0 0 0 0 32.881771zM334.158942 991.118229h-45.212435a16.440885 16.440885 0 0 0 0 32.881771h45.212435a16.440885 16.440885 0 0 0 0-32.881771z" fill="#6E6E96" opacity=".17" p-id="1157"></path><path d="M330.048721 406.63653m-36.991993 0a36.991992 36.991992 0 1 0 73.983985 0 36.991992 36.991992 0 1 0-73.983985 0Z" fill="#6E6E96" p-id="1158"></path><path d="M522.555048 24.443486c-4.217087 0-8.421844 0.078094-12.614269 0.193181 223.698798 6.374953 403.085299 189.699047 403.085299 414.939177 0 229.268148-185.8601 415.132358-415.132358 415.132358s-415.132358-185.86421-415.132358-415.132358c0-36.104184 4.619889-71.143822 13.284236-104.5517a447.590776 447.590776 0 0 0-21.504678 137.433471c0 247.427106 200.582913 448.014129 448.014128 448.014129s448.014129-200.587023 448.014129-448.014129c0-247.431216-200.578803-448.014129-448.014129-448.014129z" fill="#FF9900" opacity=".24" p-id="1159"></path><path d="M690.375387 406.63653m-36.991992 0a36.991992 36.991992 0 1 0 73.983984 0 36.991992 36.991992 0 1 0-73.983984 0Z" fill="#6E6E96" p-id="1160"></path><path d="M254.535734 603.491472a71.402766 33.313344 0 1 0 142.805531 0 71.402766 33.313344 0 1 0-142.805531 0Z" fill="#FF0000" opacity=".18" p-id="1161"></path><path d="M612.737415 603.491472a71.398655 33.313344 0 1 0 142.797311 0 71.398655 33.313344 0 1 0-142.797311 0Z" fill="#FF0000" opacity=".18" p-id="1162"></path><path d="M100.977863 487.061232C100.977863 252.112758 291.437301 61.65332 526.385775 61.65332c229.851799 0 417.092934 182.300648 425.107865 410.187762 0.18085-5.182989 0.300046-10.378309 0.300046-15.60651C951.793686 208.807466 751.210773 8.220443 503.779557 8.220443S55.765428 208.807466 55.765428 456.234572c0 205.954972 138.999466 379.435085 328.308042 431.819856C219.117956 829.496105 100.977863 672.099288 100.977863 487.061232z" fill="#FFEFB5" p-id="1163"></path><path d="M512 32.881771c237.965376 0 431.573243 193.603757 431.573243 431.573243 0 115.279379-44.891838 223.653585-126.405747 305.167496S627.279379 896.028258 512 896.028258c-115.275268 0-223.657696-44.891838-305.167496-126.405748C125.318594 688.1086 80.426757 579.734393 80.426757 464.455014 80.426757 226.485528 274.030514 32.881771 512 32.881771zM47.544986 464.455014c0 124.067032 48.311542 240.702784 136.035996 328.419018C271.305437 880.594377 387.937078 928.910029 512 928.910029c124.062922 0 240.698673-48.311542 328.414908-136.035997C928.139362 705.149578 976.455014 588.522046 976.455014 464.455014 976.455014 208.355341 768.103783 0 512 0S47.544986 208.355341 47.544986 464.455014z" fill="#6E6E96" p-id="1164"></path><path d="M460.642784 734.52944l-0.049323 0.057543c0.213732-0.242503 21.623875-23.794071 50.432417-24.583234 17.920565-0.497337 35.775367 8.014932 53.062957 25.298412a16.428555 16.428555 0 0 0 23.247412 0 16.424445 16.424445 0 0 0 0-23.243301c-24.048905-24.057126-50.165252-35.795918-77.62153-34.912221-43.153214 1.389255-72.541297 34.283356-73.770253 35.689052a16.449106 16.449106 0 0 0 1.49612 23.20631 16.457326 16.457326 0 0 0 23.2022-1.512561z" fill="#6E6E96" p-id="1165"></path><path d="M127.418917 234.562113h769.166276c28.352307-28.356417-25.335404-110.975977-93.885677-110.975977H221.296373c-74.419668 0-112.784474 92.073069-93.877456 110.975977z" fill="#E8E8FF" p-id="1166"></path><path d="M127.418917 251.002998h775.972802l4.81718-4.813069c14.225476-14.225476 16.502539-36.58508 6.243426-61.349164-15.6024-37.661958-60.066775-77.691404-111.748698-77.691404H221.296373c-55.442776 0-92.500532 41.981801-107.387753 77.929797-10.863315 26.227323-10.156357 49.071933 1.886591 61.114881l4.81307 4.81307 6.810636-0.004111z m93.877456-110.975977h581.407254c36.050752 0 69.688803 29.182572 81.378272 57.395132 4.767857 11.51684 5.104895 21.290947 0.887808 25.516254l11.619596-4.813069H127.418917l11.623706 4.813069a3.263516 3.263516 0 0 1 0.600093 0.772722c-1.709852-3.551231-0.521998-20.477123 12.556726-41.283064 8.014932-12.754017 30.785558-42.401044 69.096931-42.401044z" fill="#6E6E96" p-id="1167"></path><path d="M914.119397 292.105212H102.646613l24.772304-57.543099 22.852831-34.406663h723.477055l22.828169 34.406663 17.542425 41.644763" fill="#6E6E96" opacity=".15" p-id="1168"></path></svg>