<svg t="1624710314285" class="icon" viewBox="0 0 1024 1024" version="1.1" xmlns="http://www.w3.org/2000/svg" p-id="8248" width="16" height="16"><path d="M363.9 377.18m-144.78 0a144.78 144.78 0 1 0 289.56 0 144.78 144.78 0 1 0-289.56 0Z" fill="#FBD300" p-id="8249"></path><path d="M228.6 410.47c0-79.96 64.82-144.78 144.78-144.78 59.83 0 111.18 36.31 133.24 88.08-11.21-68.8-70.75-121.37-142.72-121.37-79.96 0-144.78 64.82-144.78 144.78 0 20.13 4.12 39.29 11.54 56.7-1.24-7.64-2.06-15.42-2.06-23.41z" fill="#F49D18" p-id="8250"></path><path d="M325.47 379.94c36.51-0.13 71.45 14.83 96.54 41.35 4.97 5.44 13.4 5.81 18.84 0.85 5.44-4.97 5.81-13.4 0.85-18.84-0.13-0.14-0.26-0.27-0.39-0.41a158.587 158.587 0 0 0-115.84-49.62c-88.24 0-160.03 71.79-160.03 160.03 0 9.83 0.89 19.66 2.65 29.21 1.63 7.19 8.78 11.7 15.97 10.07a13.345 13.345 0 0 0 10.26-14.92c-1.48-8.03-2.22-16.18-2.21-24.35 0-73.54 59.83-133.37 133.36-133.37M414.92 341.16c-4.11 6.11-2.48 14.4 3.63 18.5 6.11 4.11 14.4 2.48 18.5-3.63 34.82-51.84 92.63-82.78 154.64-82.78 102.95 0 186.7 83.75 186.7 186.7 0 16.92-2.25 33.67-6.71 49.8-1.96 7.1 2.21 14.44 9.31 16.4 7.1 1.96 14.44-2.21 16.4-9.31 5.08-18.43 7.67-37.58 7.67-56.89 0-117.65-95.73-213.37-213.37-213.37-70.91 0-137.01 35.36-176.77 94.58M232.16 352.79c7.21 1.48 14.26-3.18 15.74-10.39 11.36-55.52 60.81-95.82 117.58-95.82 26.01-0.07 51.33 8.38 72.08 24.07 5.92 4.41 14.27 3.23 18.68-2.65 4.42-5.89 3.24-14.24-2.64-18.67a145.567 145.567 0 0 0-88.12-29.41c-69.37 0-129.81 49.26-143.71 117.13-1.49 7.2 3.14 14.24 10.34 15.73 0.02 0 0.04 0.01 0.05 0.01M497.49 247.93c3.54 0 6.93-1.4 9.43-3.91l37.73-37.71c5.12-5.29 4.98-13.74-0.31-18.86-5.16-5-13.36-5-18.53-0.01l-37.74 37.73c-5.21 5.21-5.21 13.65 0 18.86 2.5 2.49 5.89 3.9 9.42 3.9M365.48 193.24c7.37 0 13.34-5.97 13.34-13.34v-53.34c0-7.37-5.97-13.34-13.34-13.34s-13.34 5.97-13.34 13.34v53.34c0 7.37 5.97 13.34 13.34 13.34M224.04 244.02c5.18 5.21 13.6 5.23 18.8 0.05l0.05-0.05c5.21-5.21 5.21-13.65 0-18.86l-37.74-37.73c-5.12-5.29-13.56-5.43-18.86-0.31s-5.43 13.56-0.31 18.86l0.33 0.33 37.73 37.71M125.43 379.95l53.34-0.01c7.37 0 13.34-5.97 13.34-13.34s-5.97-13.34-13.34-13.34l-53.34 0.01c-7.37 0-13.34 5.97-13.34 13.34s5.98 13.34 13.34 13.34M281.72 199.23c2.68 6.86 10.41 10.26 17.27 7.58 6.86-2.68 10.26-10.41 7.58-17.27-0.07-0.18-0.14-0.35-0.22-0.53l-10.2-24.64c-3.09-6.69-11.02-9.62-17.71-6.53-6.33 2.92-9.35 10.21-6.93 16.75l10.21 24.64M431.83 206.43c6.8 2.81 14.6-0.42 17.42-7.21l10.22-24.63c2.82-6.81-0.41-14.61-7.21-17.43s-14.61 0.41-17.43 7.21l-10.2 24.64c-2.83 6.8 0.4 14.6 7.2 17.42M163.25 297.27l24.64 10.2c6.81 2.82 14.61-0.42 17.42-7.22 2.82-6.81-0.42-14.61-7.22-17.42l-24.63-10.2c-6.92-2.55-14.59 0.98-17.15 7.9-2.4 6.53 0.62 13.82 6.94 16.74" fill="#231F1F" p-id="8251"></path><path d="M484.64 320.4c-0.36-0.16-0.56-0.59-0.36-0.99 0.16-0.39 0.59-0.56 0.99-0.39 0 0.04 3.88 1.82 6.9 1.23 2.97-0.64 5.03-3.21 5.07-3.25 0.24-0.31 0.72-0.36 1.03-0.12 0.36 0.28 0.39 0.75 0.16 1.07 0 0-2.46 3.05-5.98 3.77-3.48 0.7-7.76-1.32-7.81-1.32z m-7.36 7.37c-0.64-0.24-0.92-0.95-0.67-1.59 0.28-0.59 0.99-0.92 1.59-0.64l16.72 6.85c0.64 0.28 0.92 0.99 0.67 1.59-0.16 0.31-0.39 0.56-0.72 0.67l-17 7.21c-0.64 0.28-1.35-0.04-1.59-0.64-0.28-0.64 0-1.35 0.64-1.59l14.38-6.1-14.02-5.76z" fill="#461301" p-id="8252"></path><path d="M487.38 352.34c3.29 0 5.95-2.02 5.95-4.44s-2.66-4.4-5.95-4.4-5.95 1.98-5.95 4.4 2.66 4.44 5.95 4.44zM543.17 352.34c3.29 0 5.95-2.02 5.95-4.44s-2.66-4.4-5.95-4.4-5.95 1.98-5.95 4.4 2.67 4.44 5.95 4.44z" fill="#FF494E" p-id="8253"></path><path d="M545.91 320.4c0.36-0.16 0.56-0.59 0.36-0.99-0.16-0.39-0.59-0.56-0.99-0.39 0 0.04-3.88 1.82-6.9 1.23-2.97-0.64-5.07-3.21-5.07-3.25-0.24-0.31-0.72-0.36-1.07-0.12-0.31 0.28-0.36 0.75-0.12 1.07 0 0 2.46 3.05 5.98 3.77 3.49 0.7 7.77-1.32 7.81-1.32z m7.37 7.37c0.59-0.24 0.92-0.95 0.64-1.59-0.24-0.59-0.95-0.92-1.54-0.64l-16.72 6.85c-0.64 0.28-0.92 0.99-0.67 1.59 0.16 0.31 0.39 0.56 0.67 0.67l17.04 7.21c0.64 0.28 1.35-0.04 1.59-0.64 0.28-0.64 0-1.35-0.64-1.59l-14.38-6.1 14.01-5.76z" fill="#461301" p-id="8254"></path><path d="M512.78 336.96c-0.67 0.12-1.31-0.28-1.43-0.95-0.16-0.64 0.28-1.31 0.92-1.43 0.04 0 6.42-1.46 7.72 2.85 0.64 2.14-0.39 3.57-1.67 4.52 0.67 0.59 1.19 1.62 1.19 3.25 0 5-8.2 3.05-8.24 3.05-0.64-0.16-1.03-0.79-0.87-1.46 0.16-0.64 0.79-1.03 1.46-0.87 0 0 5.23 1.23 5.23-0.72 0-2.1-1.98-1.82-1.98-1.82-0.59 0.12-1.19-0.28-1.35-0.87-0.16-0.67 0.24-1.31 0.87-1.46 0-0.04 3.64-0.92 3.01-2.89-0.62-2.15-4.86-1.2-4.86-1.2z" fill="#461301" p-id="8255"></path><path d="M307.63 768.71h363.28l115.54-11.11 70-35.55 38.88-72.21v-77.77l-57.77-74.36s-27.22-25.07-48.05-27.57l-10.83-74.16-47.5-84.15-71.66-41.66-85.8-14.17-89.16 31.66s-86.66 46.66-66.66 113.32l-64.16-32.49-80.82 5.83-64.16 50-28.33 66.66v45.83s-2.5 40.96 36.66 40.9l-66.66 25.76-28.33 46.66 5 48.33 24.99 39.16 54.16 24.99 101.38 6.1z" fill="#A0E2FF" p-id="8256"></path><path d="M895.34 649.83v-77.77l-57.77-74.36s-27.22-25.07-48.05-27.57l-10.83-74.16-47.5-84.15-71.66-41.66-26.55-4.38h-86.82s215.96 41.25 215.01 246.57c0 0 175.5 23.29 72.06 221.49l23.22-11.8 38.89-72.21z" fill="#1BAFFF" p-id="8257"></path><path d="M441.2 400.65a158.572 158.572 0 0 0-115.8-49.6c-88.22 0-159.98 71.76-159.98 159.98 0 9.82 0.9 19.65 2.66 29.18 1.64 7.19 8.8 11.68 15.99 10.04 6.76-1.54 11.21-8.01 10.24-14.87-1.47-8.03-2.22-16.18-2.22-24.34 0-73.51 59.8-133.32 133.32-133.32 36.5-0.13 71.42 14.83 96.51 41.34 5.35 5.08 13.79 4.85 18.87-0.48 4.72-4.99 4.9-12.73 0.41-17.93M778.68 457.7c0 16.92-2.25 33.66-6.7 49.78-1.96 7.1 2.21 14.44 9.3 16.4 7.1 1.96 14.44-2.21 16.4-9.3 5.1-18.43 7.66-37.57 7.66-56.87 0-117.62-95.69-213.32-213.31-213.32-71.15-0.04-137.62 35.43-177.21 94.55-4.21 6.04-2.73 14.35 3.32 18.56s14.35 2.73 18.56-3.32c0.09-0.13 0.17-0.25 0.25-0.38 34.65-51.74 92.82-82.77 155.09-82.75 102.92 0.01 186.64 83.73 186.64 186.65M844.24 486.94c-6.02-4.25-14.34-2.82-18.58 3.2-4.25 6.02-2.82 14.34 3.2 18.58 35.38 25.01 56.43 65.63 56.48 108.96 0 73.51-59.8 133.32-133.32 133.32H658.7c-23.07 0-66.66 13.93-66.66 66.66 0 7.37 5.97 13.33 13.33 13.33 7.37 0 13.33-5.97 13.33-13.33 0-37.64 33.37-39.91 39.99-39.99h93.32c88.22 0 159.98-71.76 159.98-159.98 0.01-51.9-25.32-100.77-67.75-130.75M312.08 751h-93.32c-44.11 0-79.99-35.88-79.99-79.99s35.88-79.99 79.99-79.99c7.37-0.01 13.33-5.98 13.32-13.34-0.01-7.36-5.97-13.32-13.32-13.32-58.81 0-106.65 47.85-106.65 106.65s47.85 106.65 106.65 106.65h93.26c6.69 0.08 40.06 2.36 40.06 39.99v26.66c0.01 7.37 5.98 13.33 13.34 13.32 7.36-0.01 13.32-5.97 13.32-13.32v-26.66c-0.01-52.72-43.62-66.65-66.66-66.65M445.39 857.65c-7.37 0-13.33 5.97-13.33 13.33v26.66c0.01 7.37 5.98 13.33 13.34 13.32 7.36-0.01 13.32-5.97 13.32-13.32v-26.66c0-7.36-5.96-13.33-13.33-13.33M605.37 857.65c-7.37 0-13.33 5.97-13.33 13.33v26.66c0 7.37 5.97 13.33 13.33 13.33s13.33-5.97 13.33-13.33v-26.66c0-7.36-5.96-13.33-13.33-13.33M445.39 777.66c-7.37 0-13.33 5.97-13.33 13.33v26.66c0.01 7.37 5.98 13.33 13.34 13.32 7.36-0.01 13.32-5.97 13.32-13.32v-26.66c0-7.36-5.96-13.33-13.33-13.33M445.39 697.67c-7.37 0-13.33 5.97-13.33 13.33v26.66c0.01 7.37 5.98 13.33 13.34 13.32 7.36-0.01 13.32-5.97 13.32-13.32V711c0-7.36-5.96-13.33-13.33-13.33M525.38 830.99c-7.37 0-13.33 5.97-13.33 13.33v26.66c0 7.37 5.97 13.33 13.33 13.33 7.37 0 13.33-5.97 13.33-13.33v-26.66c0-7.36-5.96-13.33-13.33-13.33M525.38 751c-7.37 0-13.33 5.97-13.33 13.33v26.66c0 7.37 5.97 13.33 13.33 13.33 7.37 0 13.33-5.97 13.33-13.33v-26.66c0-7.36-5.96-13.33-13.33-13.33" fill="#231F1F" p-id="8258"></path><path d="M363.77 490.65c-1.72-0.77-2.68-2.88-1.72-4.8 0.77-1.92 2.88-2.68 4.8-1.92 0 0.19 18.8 8.83 33.39 5.95 14.39-3.07 24.37-15.54 24.56-15.74 1.15-1.53 3.45-1.72 4.99-0.57 1.72 1.35 1.92 3.64 0.77 5.18 0 0-11.9 14.78-28.98 18.23-16.89 3.45-37.61-6.33-37.81-6.33z m-35.69 35.68c-3.07-1.15-4.41-4.6-3.27-7.68 1.35-2.88 4.8-4.41 7.68-3.07l80.98 33.19c3.07 1.35 4.41 4.8 3.27 7.68-0.77 1.53-1.92 2.68-3.45 3.27l-82.32 34.93c-3.07 1.35-6.52-0.19-7.68-3.07-1.35-3.07 0-6.52 3.07-7.68L396 554.35l-67.92-28.02z" fill="#231F1F" p-id="8259"></path><path d="M377.01 645.31c15.92 0 28.78-9.79 28.78-21.5s-12.86-21.3-28.78-21.3-28.78 9.59-28.78 21.3 12.86 21.5 28.78 21.5zM647.19 645.31c15.92 0 28.78-9.79 28.78-21.5s-12.86-21.3-28.78-21.3-28.78 9.59-28.78 21.3 12.85 21.5 28.78 21.5z" fill="#F2A300" p-id="8260"></path><path d="M660.43 490.65c1.72-0.77 2.68-2.88 1.72-4.8-0.77-1.92-2.88-2.68-4.8-1.92 0 0.19-18.8 8.83-33.39 5.95-14.39-3.07-24.56-15.54-24.56-15.74-1.15-1.53-3.45-1.72-5.18-0.57-1.53 1.35-1.72 3.64-0.57 5.18 0 0 11.9 14.78 28.98 18.23 16.89 3.45 37.61-6.33 37.8-6.33z m35.69 35.68c2.88-1.15 4.41-4.6 3.07-7.68-1.15-2.88-4.6-4.41-7.48-3.07l-80.98 33.19c-3.07 1.35-4.41 4.8-3.27 7.68 0.77 1.53 1.92 2.68 3.27 3.27l82.51 34.93c3.07 1.35 6.52-0.19 7.68-3.07 1.35-3.07 0-6.52-3.07-7.68l-69.65-29.55 67.92-28.02z" fill="#231F1F" p-id="8261"></path><path d="M500.01 570.85c-3.27 0.57-6.33-1.35-6.91-4.6-0.77-3.07 1.35-6.33 4.41-6.91 0.19 0 31.09-7.1 37.42 13.82 3.07 10.36-1.92 17.27-8.06 21.87 3.27 2.88 5.76 7.87 5.76 15.74 0 24.18-39.72 14.78-39.91 14.78-3.07-0.77-4.99-3.84-4.23-7.1 0.77-3.07 3.84-4.99 7.1-4.23 0 0 25.33 5.95 25.33-3.45 0-10.17-9.59-8.83-9.59-8.83-2.88 0.57-5.76-1.35-6.52-4.23-0.77-3.27 1.15-6.33 4.23-7.1 0-0.19 17.66-4.41 14.59-14-3.08-10.36-23.62-5.76-23.62-5.76z" fill="#231F1F" p-id="8262"></path></svg>